<svg fill="none" height="20" viewBox="0 0 107 20" width="107" xmlns="http://www.w3.org/2000/svg"><g fill="#101224"><path d="m87.5834.00061035v19.99978965h-3.8764v-17.35489c0-.70147.2772-1.37422.7704-1.87023.4933-.496014 1.1623-.77466965 1.8599-.77466965z"/><path d="m91.8163.00061035 5.3075 13.43318965 5.3072-13.43318965h4.235l-8.4093 19.99978965h-2.3254l-8.3493-19.99978965z"/><path d="m8.34924 3.35838v16.64172h-3.87637v-16.64172h-4.47287v-3.35838h12.8216v3.35838z"/><path d="m25.1068.00036621v19.99983379h-3.8763v-19.99983379z"/><path d="m46.638 3.35852h-7.1562v4.4677h6.8579v3.35838h-6.8579v5.4574h7.1562v3.3584h-11.0325v-20.00003379h11.0325z"/><path d="m62.114.00036621c2.7435 0 4.145.71983579 5.0694 1.49914379.6418.55382 1.1518 1.24547 1.4925 2.02393.3406.77847.5031 1.62389.4754 2.47392.0373.91807-.1563 1.83074-.5629 2.65361-.4065.82286-1.0129 1.52933-1.763 2.05403-.6553.4434-1.3977.7399-2.177.8695l6.2023 8.4257h-4.8303l-5.3075-8.0361h-.4772v8.0361h-3.8763v-19.99983379zm-1.8786 9.20547379h1.1033c.7454 0 3.8167-.09019 3.8167-3.02849 0-2.96855-3.0417-2.99876-3.7571-2.99876h-1.1626z"/></g></svg>